<svg width="14" height="14" viewBox="0 0 14 14" fill="none" xmlns="http://www.w3.org/2000/svg">
<path d="M4.81235 3.96851H5.96704V9.25444C5.96704 9.32319 6.02329 9.37944 6.09204 9.37944H7.02954C7.09829 9.37944 7.15454 9.32319 7.15454 9.25444V3.96851H8.31235C8.41704 3.96851 8.47485 3.84819 8.41079 3.76694L6.66079 1.55132C6.64909 1.53638 6.63415 1.52429 6.6171 1.51599C6.60004 1.50768 6.58132 1.50336 6.56235 1.50336C6.54338 1.50336 6.52465 1.50768 6.5076 1.51599C6.49054 1.52429 6.4756 1.53638 6.46391 1.55132L4.71391 3.76538C4.64985 3.84819 4.70766 3.96851 4.81235 3.96851ZM12.2811 8.78569H11.3436C11.2748 8.78569 11.2186 8.84194 11.2186 8.91069V11.3169H1.9061V8.91069C1.9061 8.84194 1.84985 8.78569 1.7811 8.78569H0.843597C0.774847 8.78569 0.718597 8.84194 0.718597 8.91069V12.0044C0.718597 12.281 0.942035 12.5044 1.2186 12.5044H11.9061C12.1827 12.5044 12.4061 12.281 12.4061 12.0044V8.91069C12.4061 8.84194 12.3498 8.78569 12.2811 8.78569Z" fill="black" fill-opacity="0.85"/>
</svg>
